<svg width="210mm" height="297mm" version="1.1" viewBox="0 0 210 297" xmlns="http://www.w3.org/2000/svg">
 <g stroke-width=".13229">
  <path d="m128.75 76.962c-1.8252-0.36266-3.6525-1.1154-5.1968-2.1407-0.89451-0.59392-0.88305-0.60091 0.69653-0.42448 2.0794 0.23226 2.6795 0.33875 4.0868 0.72526 1.9026 0.52253 4.3019 0.52038 6.2177-6e-3 1.4959-0.41067 2.1723-0.53469 4.2077-0.77152 1.655-0.19258 1.6522-0.17791-0.17281 0.91201-2.7818 1.6613-6.669 2.3349-9.8391 1.705zm0.06-5.6927c-1.0189-0.37005-2.6563-1.7112-2.6563-2.1757 0-0.38755 1.0201-0.20044 1.5214 0.27906 2.2181 2.1218 6.4162 0.69294 6.4162-2.1838 0-0.0985 0.1433-0.2151 0.31844-0.25906 0.17514-0.044 0.41815-0.11819 0.54002-0.16495 0.31293-0.12009 0.15307 0.94939-0.29378 1.9654-0.92408 2.1011-3.7146 3.3131-5.8459 2.539zm-8.2516-0.15367c-0.89826-0.20505-1.4827-1.04-1.6602-1.4941-0.13192-0.33751-4e-3 -0.24167 0.24397-0.19629 0.1819 0.0362 0.62839 0.067 0.99219 0.0685 0.57927 2e-3 0.68825 0.0477 0.87708 0.3656 0.1186 0.19964 0.40653 0.61598 0.63984 0.92521 0.50202 0.66539 0.4458 0.68243-1.0929 0.33117zm5.2646 0.0988c-0.11073-0.17917 0.0387-0.39687 0.27239-0.39687 0.10485 0 0.19063 0.11906 0.19063 0.26458 0 0.27389-0.31915 0.36507-0.46302 0.13229zm14.585-0.13438c-1.136-6e-3 -1.9999-1.0195-1.9198-2.2528 0.13556-2.088 2.735-2.724 3.8711-0.94714 0.14552 0.22759 0.29893 0.41609 0.3409 0.41889 0.30165 0.0201 1.1669-3.535 1.1758-4.8313 5e-3 -0.72578 0.11541-0.92541 0.75264-1.3608 0.64274-0.43912 0.80203-0.3768 0.90241 0.35304 0.23508 1.7092-0.44442 4.8174-1.5293 6.9951l-0.68391 1.2325-1.0143 0.21636c-0.84106 0.18526-1.2687 0.17067-1.8956 0.17615zm-22.28-4.4584c-1.0238-0.12833-1.0755-4.8319-0.0869-7.9087 3.912-12.176 21.222-13.018 26.309-1.279 0.56868 1.3123 0.58701 1.1865-0.25842 1.7733l-0.71214 0.49432-0.0901-0.36203c-0.32386-1.3016-1.7337-3.637-2.9153-4.8292l-0.62513-0.63076-0.27631 0.56462c-2.4116 4.9278-9.993 2.052-8.7622-3.3237l0.10273-0.44869-0.80867 0.09149c-2.6718 0.30228-5.1738 1.4889-7.1581 3.3947l-0.8599 0.82591 0.60815 0.09777c3.4896 0.56102 3.6641 5.599 0.21952 6.3378-1.1667 0.25022-2.8387-0.69099-3.2751-1.2177 0 0-0.26731 0.21045-0.38821 0.95856-0.25236 1.5616-0.0856 4.3088 0.32334 5.3247 0.0974 0.24188-0.23658 0.27576-1.3466 0.1366zm4.9775-6.3844c2.3161-1.1816 0.94778-4.7851-1.5605-4.1097-0.66655 0.17948-1.5332 1.5611-1.5388 2.4531-9e-3 1.3996 1.7551 2.3424 3.0993 1.6566zm13.316-4.4318c1.0431-0.30976 2.4326-1.7771 2.4326-2.5689 0-0.75049-5.7895-2.8723-6.7898-2.4884-0.29534 0.11333-0.52751 1.0992-0.44608 1.8942 0.24087 2.3515 2.5082 3.8446 4.8033 3.1631zm-10.729 9.8371c0.63782-2.953 4.1388-4.5444 6.8788-3.1267 0.61442 0.31789 1.5767 1.2236 1.475 1.3882-0.22584 0.36541-0.86188 0.32695-1.3731-0.083-2.0724-1.662-5.0566-0.69729-6.0069 1.9419-0.0273 0.0758-0.27931 0.18038-0.56005 0.23242l-0.51043 0.0946zm8.8205-5.2812c-0.37608-0.35036-0.38874-1.0863-0.025-1.45 0.62857-0.62857 1.8341-0.0246 1.668 0.83559-0.15828 0.81972-1.0606 1.1572-1.6431 0.61446zm-9.5235-4.9161c-0.0873-0.08731-0.15875-0.28377-0.15875-0.43656s0.0714-0.34925 0.15875-0.43656c0.35156-0.35156 1.0319-0.09612 1.0319 0.38742 0 0.50582-0.68795 0.82963-1.0319 0.4857z" fill="#b7e6e6"/>
  <path d="m142.95 77.214c-0.13582-0.26266-0.38761-0.48893-0.64322-0.57804l-0.42001-0.14641 0.42444-0.1732c0.23633-0.0964 0.52014-0.35822 0.64034-0.59067l0.21588-0.41747 0.196 0.40468c0.10779 0.22258 0.37624 0.47935 0.59655 0.5706l0.40056 0.16592-0.44279 0.22898c-0.24354 0.12593-0.51069 0.39508-0.59367 0.5981l-0.15088 0.36912zm-23.73-0.61012c-0.0831-0.18237-0.3332-0.44234-0.55578-0.5777l-0.40469-0.24611 0.38159-0.15806c0.20988-0.0869 0.47382-0.34812 0.58653-0.58041l0.20495-0.42235 0.14289 0.36374c0.0786 0.20006 0.32879 0.4768 0.556 0.61497l0.41311 0.25123-0.37287 0.17878c-0.20507 0.0983-0.44015 0.31378-0.52239 0.47878-0.22385 0.4491-0.26476 0.45836-0.42934 0.0971zm8.1779-2.5263c-8.4958-0.56477-13.766-2.4905-13.756-5.0262 3e-3 -0.82103 0.0989-0.87807 0.94809-0.56525 0.61244 0.22561 0.7549 0.33763 0.81564 0.64136 0.53839 2.692 16.136 4.2775 25.288 2.5706 3.1623-0.58978 3.5577-0.72576 3.6465-1.2543 0.4268-2.5382 3.6993-2.9734 4.6815-0.62263 0.89676 2.1462-1.7712 4.2763-3.6325 2.9001l-0.37013-0.27365-0.90594 0.26021c-3.6864 1.0589-11.616 1.7087-16.715 1.3697zm19.968-2.3648c1.0429-0.53928 0.60021-2.1868-0.58754-2.1868-1.1704 0-1.6294 1.6292-0.61435 2.1806 0.45086 0.24493 0.73736 0.2464 1.2019 6e-3zm-29.846-3.0405c-6.821-0.92342-6.9046-5.9293-0.16992-10.174l0.33769-0.21286-0.6027 2.3906-1.2453 1.2171c-1.967 1.9224-2.3298 3.0222-1.2991 3.9369 2.4274 2.1541 10.988 1.571 19.65-1.3385 2.8726-0.9648 3.1283-1.0881 3.1283-1.5084 0-1.1623 1.1257-2.188 2.4014-2.188 2.6048 0 3.3551 3.5661 0.97753 4.6461-0.83778 0.38055-2.2929 0.16718-2.635-0.38639-0.0508-0.0822-0.52705 0.0414-1.24 0.32184-6.4633 2.5421-14.604 3.9322-19.303 3.296zm23.046-4.6304c0.93122-0.93123-0.21738-2.4671-1.3911-1.8602-0.71766 0.37112-0.85774 1.1423-0.32294 1.7778 0.45067 0.53559 1.2236 0.57271 1.714 0.0823zm7.8852 2.3894c-0.22438-0.50724-0.38036-0.66841-0.81034-0.83731-0.66518-0.2613-0.66518-0.34135 0-0.60264 0.42998-0.1689 0.58596-0.33007 0.81034-0.83732l0.27786-0.62815 0.28107 0.58574c0.20873 0.43499 0.42454 0.65383 0.83852 0.85032 0.3066 0.14552 0.55745 0.29435 0.55745 0.33073 0 0.0364-0.25085 0.18521-0.55745 0.33073-0.41398 0.19649-0.62979 0.41533-0.83852 0.85032l-0.28107 0.58574zm-5.6022-4.8128c-0.19624-0.41226-0.34507-0.75415-0.33073-0.75977 0.52643-0.20607 3.4788-2.394 4.2261-3.1318 3.0584-3.0196 1.7362-4.7942-3.759-5.0453l-1.2788-0.05843-0.92979-0.70982c-0.51138-0.3904-0.93307-0.76187-0.93707-0.82548-0.0153-0.24312 5.4102-9.26e-4 6.4954 0.28995 5.7007 1.5281 4.8664 5.9724-1.9386 10.327-1.272 0.81399-1.1146 0.82279-1.5474-0.0865zm-28.285-6.2495c-0.20148-0.74824-0.82946-1.4085-1.6-1.6821-0.81606-0.28984-0.81606-0.44347 0-0.73331 0.77054-0.27367 1.3985-0.93388 1.6-1.6821 0.18747-0.69621 0.43663-0.67347 0.63219 0.0577 0.20521 0.76727 0.87652 1.4345 1.6656 1.6554 0.7798 0.21833 0.7798 0.45307 0 0.6714-0.78911 0.22094-1.4604 0.88812-1.6656 1.6554-0.19556 0.73117-0.44472 0.75391-0.63219 0.0577zm24.987-7.2213c-0.10027-0.21107-0.37605-0.48058-0.61285-0.59891l-0.43055-0.21515 0.40387-0.16729c0.22212-0.09201 0.49638-0.34619 0.60945-0.56485l0.20559-0.39756 0.19599 0.40468c0.1078 0.22258 0.37459 0.47866 0.59286 0.56907l0.39687 0.16439-0.41231 0.17336c-0.24864 0.10454-0.48263 0.34061-0.58946 0.59469l-0.17716 0.42133z" fill="#4bc0c0"/>
 </g>
 <text x="104.13161" y="85.795052" fill="#239090" font-family="sans-serif" font-size="6.35px" stroke-width=".26458" style="line-height:1.25" xml:space="preserve"><tspan x="104.13161" y="85.795052" fill="#239090" font-family="'Ubuntu Light'" font-size="6.35px" stroke-width=".26458">CORRELATIONS.🗺️</tspan></text>
</svg>
