<?xml version="1.0" encoding="UTF-8" standalone="no"?>
<svg
   width="139.94mm"
   height="96.259mm"
   version="1.1"
   viewBox="0 0 139.94 96.259"
   id="svg54"
   sodipodi:docname="strongPositive.svg"
   xmlns:inkscape="http://www.inkscape.org/namespaces/inkscape"
   xmlns:sodipodi="http://sodipodi.sourceforge.net/DTD/sodipodi-0.dtd"
   xmlns="http://www.w3.org/2000/svg"
   xmlns:svg="http://www.w3.org/2000/svg">
  <defs
     id="defs58" />
  <sodipodi:namedview
     id="namedview56"
     pagecolor="#ffffff"
     bordercolor="#666666"
     borderopacity="1.0"
     inkscape:pageshadow="2"
     inkscape:pageopacity="0.0"
     inkscape:pagecheckerboard="0"
     inkscape:document-units="mm"
     showgrid="true">
    <inkscape:grid
       type="xygrid"
       id="grid908" />
  </sodipodi:namedview>
  <g
     transform="translate(-21.313,-94.734)"
     id="g52">
    <g
       stroke="#000000"
       stroke-linejoin="round"
       id="g8">
      <path
         transform="scale(0.26458)"
         d="m 345,367.5 c -125.18,0 -250.35,84.356 -254.86,253.05 -0.08352,3.1238 -0.13867,6.2676 -0.13867,9.4492 h 510 c 0,-3.1817 -0.0552,-6.3254 -0.13867,-9.4492 -4.5104,-168.69 -129.68,-253.05 -254.86,-253.05 z"
         fill="none"
         stroke-width="18.898"
         id="path2" />
      <path
         d="m 46.302,166.69 c 10e-7,-61.736 89.958,-61.736 89.958,0"
         fill="none"
         stroke-width="5"
         id="path4" />
      <path
         d="m 101.58,137.42 c -13.557,-5.4539 -28.968,1.1147 -34.421,14.671 -5.4539,13.557 1.1147,28.968 14.671,34.421 13.557,5.4539 28.968,-1.1147 34.421,-14.671 1.7059,-4.24 2.2844,-8.8496 1.6791,-13.38 8.196,-11.167 8.196,-11.167 -5.8926,-13.423 -2.8017,-3.3658 -6.3951,-5.9835 -10.458,-7.6184 z"
         fill="#ffffff"
         stroke-width="5"
         id="path6" />
    </g>
    <circle
       cx="83.277"
       cy="156.37"
       r="2.6458001"
       id="circle10" />
    <circle
       cx="100.53"
       cy="156.37"
       r="2.6458001"
       id="circle12" />
    <path
       d="m 82.895,166.9 c 5.292,6.1516 11.907,6.1516 17.198,0"
       fill="none"
       stroke="#000000"
       stroke-linecap="round"
       stroke-linejoin="round"
       stroke-width="5"
       id="path14" />
    <path
       d="M 153.46,142.88"
       fill="none"
       stroke="#000000"
       stroke-width="0.26458px"
       id="path16" />
    <circle
       cx="47.625"
       cy="154.78"
       r="0.39686999"
       id="circle18" />
    <g
       fill="none"
       stroke="#000000"
       stroke-width="4"
       id="g32">
      <path
         d="M 47.625,154.78 26.458,149.1084"
         id="path20" />
      <path
         d="m 134.94,154.78 21.167,-5.6716"
         id="path22" />
      <path
         d="m 42.713,119.44 15.495,15.495"
         id="path24" />
      <path
         d="m 139.85,119.44 -15.495,15.495"
         id="path26" />
      <path
         d="M 78.052,120.39 72.3804,99.223"
         id="path28" />
      <path
         d="m 103.19,121.71 5.6716,-21.167"
         id="path30" />
    </g>
    <g
       stroke-linecap="round"
       stroke-linejoin="round"
       id="g50">
      <path
         transform="scale(0.26458)"
         d="m 295.28,417.85 c -4.6976,-17.632 -8.7074,-32.534 -8.9106,-33.115 -0.41156,-1.1779 18.41,-4.6514 33.439,-6.1712 12.092,-1.2228 37.769,-1.2059 50.229,0.0331 13.109,1.3035 28.052,3.7869 29.163,4.8469 0.84465,0.80554 -15.219,63.242 -16.626,64.621 -0.34917,0.34225 -4.3194,-0.0326 -8.8227,-0.83308 -16.236,-2.8859 -58.852,-1.5752 -68.443,2.105 -1.2296,0.47185 -2.9717,-4.9974 -10.029,-31.486 z"
         fill="#e3dedb"
         stroke="#c8beb7"
         stroke-width="7.5591"
         id="path34" />
      <path
         transform="scale(0.26458)"
         d="m 464.78,488.25 c -14.727,-12.695 -37.246,-25.731 -55.519,-32.141 l -7.3556,-2.5802 1.2117,-4.4897 c 0.66645,-2.4693 4.5664,-17.06 8.6664,-32.425 4.1001,-15.364 7.5957,-28.088 7.768,-28.275 1.0022,-1.087 29.11,9.8254 42.013,16.311 17.145,8.6176 38.382,23.205 52.343,35.953 l 5.7797,5.2778 -48.164,48.181 z"
         fill="#fce94f"
         stroke="#edd400"
         stroke-width="7.2815"
         id="path36" />
      <path
         transform="scale(0.26458)"
         d="m 514.01,562.07 c -5.9063,-17.493 -14.394,-33.891 -24.312,-46.969 -2.3146,-3.0523 -4.2083,-5.8731 -4.2083,-6.2685 0,-0.39541 10.753,-11.466 23.896,-24.601 l 23.896,-23.882 7.7522,10.403 c 17.2,23.081 29.018,46.773 37.5,75.175 1.4621,4.896 2.3949,9.1652 2.0728,9.4873 -0.3221,0.3221 -14.625,4.3592 -31.785,8.9713 l -31.199,8.3858 z"
         fill="#8ae234"
         stroke="#73d216"
         stroke-width="7.2815"
         id="path38" />
      <g
         stroke-width="7.2815"
         id="g48">
        <path
           transform="scale(0.26458)"
           d="m 524.63,617.22 c -0.83933,-5.9076 -2.6038,-25.054 -2.3272,-25.253 0.74062,-0.53316 62.796,-16.824 63.064,-16.555 0.82022,0.82023 3.2747,21.74 3.8315,32.657 l 0.62644,12.282 h -64.75 z"
           fill="#4e9a06"
           stroke="#3c7606"
           id="path40" />
        <path
           transform="scale(0.26458)"
           d="m 194.24,470.22 -23.926,-23.94 5.1493,-4.8652 c 14.474,-13.676 33.662,-26.922 53.489,-36.928 14.042,-7.0858 36.775,-15.873 37.914,-14.655 0.80877,0.86431 17.298,62.008 17.298,64.142 0,0.74838 -1.7768,1.8828 -3.9856,2.5445 -16.815,5.038 -46.454,22.632 -57.612,34.2 -1.8258,1.8928 -3.5629,3.4415 -3.8603,3.4415 -0.29739,0 -11.307,-10.773 -24.467,-23.94 z"
           fill="#ffcc66"
           stroke="#f2b35d"
           id="path42" />
        <path
           transform="scale(0.26458)"
           d="m 139.32,563.99 c -16.352,-4.4418 -29.973,-8.319 -30.27,-8.6159 -0.297,-0.2969 1.8886,-7.8456 4.8568,-16.775 5.712,-17.184 13.716,-35.065 21.401,-47.808 5.2814,-8.7584 17.903,-26.462 20.26,-28.419 1.386,-1.1503 4.3561,1.4836 25.483,22.598 l 23.914,23.9 -5.9908,8.1018 c -7.9595,10.764 -17.348,28.942 -22.3,43.175 -3.1048,8.9239 -4.4322,11.6 -5.8223,11.739 -0.99037,0.0989 -15.179,-3.4544 -31.531,-7.8962 z"
           fill="#ef3a29"
           stroke="#cc2900"
           id="path44" />
        <path
           transform="scale(0.26458)"
           d="m 100.54,609.67 c 0.59365,-9.7742 3.3344,-33.756 3.9289,-34.377 0.21687,-0.22673 59.922,15.526 62.728,16.55 0.72401,0.2643 0.67124,2.913 -0.17736,8.9017 -0.66443,4.689 -1.2366,11.018 -1.2715,14.064 l -0.0635,5.5388 h -65.793 z"
           fill="#a40000"
           stroke="#780303"
           style="mix-blend-mode:normal"
           id="path46" />
      </g>
    </g>
  </g>
  <path
     style="fill:none;stroke:#000000;stroke-width:0.264583px;stroke-linecap:butt;stroke-linejoin:miter;stroke-opacity:1"
     d="m 69.967452,71.437499 v -68.7916657 0"
     id="path910" />
  <path
     style="fill:none;stroke:#000000;stroke-width:0.264583px;stroke-linecap:butt;stroke-linejoin:miter;stroke-opacity:1"
     d="M 85.989582,1.1947099 85.061569,0.99778967 70.114582,71.437499 111.125,14.552083 v 0"
     id="path1025" />
  <path
     style="fill:none;stroke:#000000;stroke-width:0.264583px;stroke-linecap:butt;stroke-linejoin:miter;stroke-opacity:1"
     d="M 70.114582,71.437499 131.58351,40.161035 131.35266,39.707338"
     id="path1027" />
</svg>
