<?xml version="1.0" encoding="UTF-8" standalone="no"?>
<svg
   width="139.93582mm"
   height="100.61569mm"
   version="1.1"
   viewBox="0 0 139.93582 100.61569"
   id="svg54"
   sodipodi:docname="veryStrongPositive.svg"
   inkscape:version="1.1.1 (3bf5ae0d25, 2021-09-20)"
   xmlns:inkscape="http://www.inkscape.org/namespaces/inkscape"
   xmlns:sodipodi="http://sodipodi.sourceforge.net/DTD/sodipodi-0.dtd"
   xmlns="http://www.w3.org/2000/svg"
   xmlns:svg="http://www.w3.org/2000/svg">
  <defs
     id="defs58" />
  <sodipodi:namedview
     id="namedview56"
     pagecolor="#ffffff"
     bordercolor="#666666"
     borderopacity="1.0"
     inkscape:pageshadow="2"
     inkscape:pageopacity="0.0"
     inkscape:pagecheckerboard="0"
     inkscape:document-units="mm"
     showgrid="false"
     inkscape:zoom="4.2427111"
     inkscape:cx="256.4398"
     inkscape:cy="323.14244"
     inkscape:window-width="1920"
     inkscape:window-height="1010"
     inkscape:window-x="-6"
     inkscape:window-y="-6"
     inkscape:window-maximized="1"
     inkscape:current-layer="svg54">
    <inkscape:grid
       type="xygrid"
       id="grid875"
       originx="-0.12649806"
       originy="0.00086504068" />
  </sodipodi:namedview>
  <path
     d="m 69.967563,2.500015 c -33.120124,0 -66.2376032,22.31891 -67.430859,66.951969 -0.022098,0.826495 -0.036689,1.658282 -0.036689,2.500069 H 137.43581 c 0,-0.841814 -0.0146,-1.673574 -0.0367,-2.500069 -1.19335,-44.632 -34.31072,-66.951969 -67.430843,-66.951969 z"
     fill="none"
     stroke-width="5.00003"
     id="path2"
     style="stroke:#000000;stroke-linejoin:round" />
  <path
     d="m 24.862502,71.956865 c 1e-6,-61.736 89.957998,-61.736 89.957998,0"
     fill="none"
     stroke-width="5"
     id="path4"
     style="stroke:#000000;stroke-linejoin:round" />
  <path
     d="M 90.808996,87.839806 C 81.818296,99.359553 65.19175,101.40977 53.673133,92.419238 42.153382,83.428536 40.103148,66.801991 49.093702,55.283374 c 8.9907,-11.519744 25.617246,-13.569975 37.135862,-4.579431 3.60299,2.811787 6.416198,6.508941 8.165654,10.731536 12.692582,5.547496 12.692582,5.547496 1.63754,14.567709 -0.734798,4.317199 -2.52978,8.384498 -5.223996,11.837215 z"
     fill="#ffffff"
     stroke-width="5"
     id="path6"
     style="stroke:#000000;stroke-linejoin:round"
     inkscape:transform-center-x="-3.695153"
     inkscape:transform-center-y="0.095385502" />
  <circle
     cx="61.837502"
     cy="64.282692"
     r="2.6458001"
     id="circle10" />
  <circle
     cx="78.561333"
     cy="64.282692"
     r="2.6458001"
     id="circle12" />
  <path
     d="M 132.0205,48.146865"
     fill="none"
     stroke="#000000"
     stroke-width="0.26458px"
     id="path16" />
  <circle
     cx="26.185503"
     cy="60.046864"
     r="0.39686999"
     id="circle18" />
  <path
     style="fill:none;stroke:#000000;stroke-width:4;stroke-linecap:butt;stroke-linejoin:miter;stroke-miterlimit:4;stroke-dasharray:none;stroke-opacity:1"
     d="m 48.027668,4.7633649 7.9375,23.8124991 v 0"
     id="path1869" />
  <path
     style="fill:none;stroke:#000000;stroke-width:4;stroke-linecap:butt;stroke-linejoin:miter;stroke-miterlimit:4;stroke-dasharray:none;stroke-opacity:1"
     d="M 91.154754,6.6154483 83.746421,29.369615"
     id="path1869-0"
     sodipodi:nodetypes="cc" />
  <path
     style="fill:none;stroke:#000000;stroke-width:4;stroke-linecap:butt;stroke-linejoin:miter;stroke-miterlimit:4;stroke-dasharray:none;stroke-opacity:1"
     d="m 28.977668,14.552948 14.552083,19.84375 v 0"
     id="path2121" />
  <path
     style="fill:none;stroke:#000000;stroke-width:4;stroke-linecap:butt;stroke-linejoin:miter;stroke-miterlimit:4;stroke-dasharray:none;stroke-opacity:1"
     d="m 109.94016,16.140447 -14.552075,19.84375 v 0"
     id="path2121-7" />
  <path
     style="fill:none;stroke:#000000;stroke-width:4;stroke-linecap:butt;stroke-linejoin:miter;stroke-miterlimit:4;stroke-dasharray:none;stroke-opacity:1"
     d="M 9.3985062,40.482114 29.329939,50.623628 v 0"
     id="path2373" />
  <path
     style="fill:none;stroke:#000000;stroke-width:4;stroke-linecap:butt;stroke-linejoin:miter;stroke-miterlimit:4;stroke-dasharray:none;stroke-opacity:1"
     d="m 129.95807,40.702247 -19.93144,10.141514 v 0"
     id="path2373-1" />
  <path
     style="fill:none;stroke:#000000;stroke-width:4;stroke-linecap:butt;stroke-linejoin:miter;stroke-miterlimit:4;stroke-dasharray:none;stroke-opacity:1"
     d="m 3.8422503,60.855034 20.6370927,3.526707 0.0143,-0.08581"
     id="path2590" />
  <path
     style="fill:none;stroke:#000000;stroke-width:4;stroke-linecap:butt;stroke-linejoin:miter;stroke-miterlimit:4;stroke-dasharray:none;stroke-opacity:1"
     d="m 135.48732,60.931533 -20.63709,3.526707 -0.0143,-0.08581"
     id="path2590-3" />
  <path
     style="fill:#4e9a06;fill-opacity:1;stroke:#3c7606;stroke-width:1.333;stroke-linecap:round;stroke-linejoin:round;stroke-miterlimit:4;stroke-dasharray:none;stroke-opacity:1"
     d="m 117.41446,67.658508 0.10848,-1.485654 8.1989,-1.398362 c 4.5094,-0.769102 8.26374,-1.330849 8.34298,-1.248331 0.0792,0.08252 0.25801,1.380329 0.39726,2.884017 l 0.25319,2.733984 h -8.70464 -8.70464 z"
     id="path5500" />
  <path
     style="fill:#a40000;fill-opacity:1;stroke:#780303;stroke-width:1.33331;stroke-linecap:round;stroke-linejoin:round;stroke-miterlimit:4;stroke-dasharray:none;stroke-opacity:1"
     d="m 5.0555617,67.51259 c 0.064513,-0.994375 0.164991,-2.370269 0.2232832,-3.057543 L 5.3848312,63.20546 6.73014,63.44196 c 0.73992,0.130072 4.401196,0.753782 8.136168,1.386017 3.734973,0.632235 6.989601,1.189358 7.232505,1.238049 l 0.441646,0.08853 -0.117612,1.538899 c -0.06469,0.846394 -0.124522,1.55874 -0.13297,1.582994 -0.0084,0.02426 -3.916016,0.0441 -8.683485,0.0441 H 4.9382645 Z"
     id="path9792" />
  <path
     style="fill:#ef3a29;fill-opacity:1;stroke:#cc2900;stroke-width:1.33331;stroke-linecap:round;stroke-linejoin:round;stroke-miterlimit:4;stroke-dasharray:none;stroke-opacity:1"
     d="M 14.451443,60.578959 C 9.8092087,59.77266 5.9832403,59.085188 5.9492914,59.051237 c -0.111443,-0.111443 0.9419733,-5.180428 1.5749524,-7.578588 0.5363106,-2.031915 1.7132844,-5.663443 2.4331983,-7.507583 0.1230829,-0.315291 0.2988709,-0.573255 0.3906409,-0.573255 0.142015,0 15.425438,7.697989 15.606076,7.860504 0.03505,0.03153 -0.380071,1.404718 -0.922491,3.051522 -0.542422,1.646803 -1.205355,4.072093 -1.473186,5.389536 -0.26783,1.317442 -0.527385,2.385501 -0.576788,2.373465 -0.0494,-0.01204 -3.888016,-0.681582 -8.530251,-1.487879 z"
     id="path15168" />
  <path
     style="fill:#8ae234;fill-opacity:1;stroke:#73d216;stroke-width:1.333;stroke-linecap:round;stroke-linejoin:round;stroke-miterlimit:4;stroke-dasharray:none;stroke-opacity:1"
     d="m 116.56224,61.701875 c -0.0498,-0.223787 -0.29711,-1.359374 -0.54961,-2.523519 -0.2525,-1.164148 -0.88241,-3.386611 -1.39981,-4.938808 -0.51739,-1.552197 -0.88786,-2.873761 -0.82326,-2.936811 0.0646,-0.06305 3.59844,-1.879772 7.85297,-4.037158 6.0984,-3.092376 7.76797,-3.870701 7.8889,-3.677664 0.30217,0.482373 1.61736,4.349978 2.36254,6.947527 0.9929,3.461086 1.97491,8.372515 1.70711,8.53802 -0.10815,0.06684 -3.8295,0.737714 -8.26968,1.490834 -4.44017,0.753118 -8.2093,1.408721 -8.37584,1.456891 -0.21023,0.0608 -0.33047,-0.03681 -0.39332,-0.319312 z"
     id="path18360" />
  <path
     style="fill:#fce94f;fill-opacity:1;stroke:#edd400;stroke-width:1.33331;stroke-linecap:round;stroke-linejoin:round;stroke-miterlimit:4;stroke-dasharray:none;stroke-opacity:1"
     d="m 111.19082,46.344183 c -0.97193,-1.783638 -2.78942,-4.465751 -4.25815,-6.283849 -1.35185,-1.673405 -4.63642,-4.996965 -6.15167,-6.224682 l -0.77901,-0.631188 5.25357,-7.167604 c 2.88946,-3.942183 5.32658,-7.212732 5.41583,-7.267886 0.45881,-0.283561 6.40332,5.322821 9.27571,8.7481 1.01692,1.212654 2.66767,3.435117 3.66835,4.938807 2.01437,3.026929 4.20191,6.892756 4.00205,7.072429 -0.22115,0.198819 -15.50013,7.920495 -15.66801,7.918283 -0.0875,-0.0013 -0.4289,-0.497234 -0.75867,-1.10241 z"
     id="path24315" />
  <path
     style="fill:#ffcc66;fill-opacity:1;stroke:#f2b35d;stroke-width:1.33331;stroke-linecap:round;stroke-linejoin:round;stroke-miterlimit:4;stroke-dasharray:none;stroke-opacity:1"
     d="m 19.981501,43.54369 c -4.220034,-2.143937 -7.738404,-3.958185 -7.8186,-4.031654 -0.285496,-0.261565 2.519424,-5.199576 4.681683,-8.24202 2.902073,-4.083415 6.867964,-8.369904 10.528746,-11.379878 l 1.835669,-1.509328 5.362876,7.312315 5.362879,7.312314 -0.495882,0.385662 c -3.997433,3.108929 -8.355592,8.233767 -10.819048,12.722315 -0.403063,0.734399 -0.785196,1.333712 -0.849188,1.331807 -0.06399,-0.0019 -3.569101,-1.757596 -7.789135,-3.901533 z"
     id="path26924" />
  <path
     style="fill:#ddd9c7;fill-opacity:1;stroke:#d1c6b2;stroke-width:1.33331;stroke-linecap:round;stroke-linejoin:round;stroke-miterlimit:4;stroke-dasharray:none;stroke-opacity:1"
     d="m 37.986283,23.326593 c -3.025431,-4.127326 -5.283268,-7.364763 -5.195551,-7.449723 0.473575,-0.458681 4.416642,-2.693526 6.857804,-3.886854 2.622809,-1.282125 6.439982,-2.880818 7.213304,-3.0210485 0.294153,-0.05334 0.66975,0.9443408 3.130851,8.3163225 1.538129,4.607314 2.796598,8.458826 2.796598,8.558915 0,0.100089 -0.595484,0.40343 -1.323297,0.67409 -1.592273,0.592135 -5.429097,2.467504 -6.996692,3.419851 l -1.132329,0.687914 z"
     id="path29767" />
  <path
     style="fill:#dadaa7;fill-opacity:1;stroke:#d2cc9b;stroke-width:1.33331;stroke-linecap:round;stroke-linejoin:round;stroke-miterlimit:4;stroke-dasharray:none;stroke-opacity:1"
     d="m 95.121921,29.870831 c -1.540669,-0.935734 -5.415986,-2.815778 -7.020629,-3.405937 -0.680426,-0.25025 -1.080106,-0.491193 -1.030261,-0.621085 0.04479,-0.116722 1.298737,-3.961132 2.786547,-8.543133 l 2.705111,-8.3309121 0.459869,0.091974 c 0.928542,0.1857081 4.38131,1.6408151 7.214552,3.0404441 2.50624,1.238088 6.47252,3.492858 6.94049,3.945558 0.14707,0.142281 -10.373389,14.652726 -10.611075,14.63542 -0.06694,-0.0049 -0.717013,-0.37042 -1.444604,-0.812329 z"
     id="path33583" />
  <path
     style="fill:#eeeeec;fill-opacity:1;stroke:#d3d7cf;stroke-width:1.33331;stroke-linecap:round;stroke-linejoin:round;stroke-miterlimit:4;stroke-dasharray:none;stroke-opacity:1"
     d="m 81.804781,24.497005 c -6.852449,-1.747563 -15.817681,-1.81009 -23.17436,-0.161624 -0.910399,0.204001 -1.687139,0.339043 -1.726083,0.300098 -0.03895,-0.03895 -1.336908,-3.867247 -2.88436,-8.507334 -2.089449,-6.2652859 -2.757398,-8.4715166 -2.595372,-8.572494 0.833757,-0.519615 7.7623,-1.7679805 12.124226,-2.1845098 4.104627,-0.3919591 11.189401,-0.2671824 15.169195,0.2671593 3.506026,0.4707318 9.509895,1.6970343 9.818262,2.0054001 0.05718,0.057185 -5.065496,16.0797604 -5.456153,17.0655974 -0.02236,0.05642 -0.596271,-0.03911 -1.275355,-0.212293 z"
     id="path33739" />
  <path
     d="m 61.242499,75.404778 c 1.146531,8.95439 15.870969,9.2662 17.098501,0"
     fill="none"
     stroke="#000000"
     stroke-linecap="round"
     stroke-linejoin="round"
     stroke-width="5"
     id="path14-4"
     sodipodi:nodetypes="cc" />
</svg>
