<svg width="139.94mm" height="100.62mm" version="1.1" viewBox="0 0 139.94 100.62" xmlns="http://www.w3.org/2000/svg">
 <g stroke="#000" stroke-linejoin="round">
  <path d="m69.968 2.5c-33.12 0-66.238 22.319-67.431 66.952-0.022098 0.8265-0.036689 1.6583-0.036689 2.5001h134.94c0-0.84181-0.0146-1.6736-0.0367-2.5001-1.1934-44.632-34.311-66.952-67.431-66.952z" fill="none" stroke-width="5"/>
  <path d="m24.863 71.957c1e-6 -61.736 89.958-61.736 89.958 0" fill="none" stroke-width="5"/>
  <path d="m44.649 63.975c-4.2419 13.984 3.6551 28.758 17.638 32.999 13.984 4.2419 28.758-3.6551 32.999-17.638 4.2419-13.984-3.6551-28.758-17.638-32.999-4.3735-1.3268-9.0161-1.4982-13.476-0.49725-11.844-7.1834-11.844-7.1834-12.853 7.049-3.1067 3.0865-5.3986 6.896-6.6703 11.087z" fill="#fff" stroke-width="5"/>
 </g>
 <circle cx="61.838" cy="64.283" r="2.6458"/>
 <circle cx="78.561" cy="64.283" r="2.6458"/>
 <path d="m132.02 48.147" fill="none" stroke="#000" stroke-width=".26458px"/>
 <circle cx="26.186" cy="60.047" r=".39687"/>
 <g fill="none" stroke="#000" stroke-width="4">
  <path d="m48.028 4.7634 7.9375 23.812"/>
  <path d="m91.155 6.6154-7.4083 22.754"/>
  <path d="m28.978 14.553 14.552 19.844"/>
  <path d="m109.94 16.14-14.552 19.844"/>
  <path d="m9.3985 40.482 19.931 10.142"/>
  <path d="m129.96 40.702-19.931 10.142"/>
  <path d="m3.8423 60.855 20.637 3.5267 0.0143-0.08581"/>
  <path d="m135.49 60.932-20.637 3.5267-0.0143-0.08581"/>
 </g>
 <g stroke-linecap="round" stroke-linejoin="round">
  <path d="m117.41 67.659 0.10848-1.4857 8.1989-1.3984c4.5094-0.7691 8.2637-1.3308 8.343-1.2483 0.0792 0.08252 0.25801 1.3803 0.39726 2.884l0.25319 2.734h-17.409z" fill="#4e9a06" stroke="#3c7606" stroke-width="1.333"/>
  <path d="m5.0556 67.513c0.064513-0.99438 0.16499-2.3703 0.22328-3.0575l0.10599-1.2496 1.3453 0.2365c0.73992 0.13007 4.4012 0.75378 8.1362 1.386 3.735 0.63224 6.9896 1.1894 7.2325 1.238l0.44165 0.08853-0.11761 1.5389c-0.06469 0.84639-0.12452 1.5587-0.13297 1.583-0.0084 0.02426-3.916 0.0441-8.6835 0.0441h-8.6681z" fill="#a40000" stroke="#780303" stroke-width="1.3333"/>
  <path d="m14.451 60.579c-4.6422-0.8063-8.4682-1.4938-8.5022-1.5277-0.11144-0.11144 0.94197-5.1804 1.575-7.5786 0.53631-2.0319 1.7133-5.6634 2.4332-7.5076 0.12308-0.31529 0.29887-0.57326 0.39064-0.57326 0.14202 0 15.425 7.698 15.606 7.8605 0.03505 0.03153-0.38007 1.4047-0.92249 3.0515-0.54242 1.6468-1.2054 4.0721-1.4732 5.3895-0.26783 1.3174-0.52738 2.3855-0.57679 2.3735-0.0494-0.01204-3.888-0.68158-8.5303-1.4879z" fill="#ef3a29" stroke="#cc2900" stroke-width="1.3333"/>
  <path d="m116.56 61.702c-0.0498-0.22379-0.29711-1.3594-0.54961-2.5235-0.2525-1.1641-0.88241-3.3866-1.3998-4.9388-0.51739-1.5522-0.88786-2.8738-0.82326-2.9368s3.5984-1.8798 7.853-4.0372c6.0984-3.0924 7.768-3.8707 7.8889-3.6777 0.30217 0.48237 1.6174 4.35 2.3625 6.9475 0.9929 3.4611 1.9749 8.3725 1.7071 8.538-0.10815 0.06684-3.8295 0.73771-8.2697 1.4908-4.4402 0.75312-8.2093 1.4087-8.3758 1.4569-0.21023 0.0608-0.33047-0.03681-0.39332-0.31931z" fill="#8ae234" stroke="#73d216" stroke-width="1.333"/>
  <g stroke-width="1.3333">
   <path d="m111.19 46.344c-0.97193-1.7836-2.7894-4.4658-4.2582-6.2838-1.3518-1.6734-4.6364-4.997-6.1517-6.2247l-0.77901-0.63119 5.2536-7.1676c2.8895-3.9422 5.3266-7.2127 5.4158-7.2679 0.45881-0.28356 6.4033 5.3228 9.2757 8.7481 1.0169 1.2127 2.6677 3.4351 3.6684 4.9388 2.0144 3.0269 4.2019 6.8928 4.002 7.0724-0.22115 0.19882-15.5 7.9205-15.668 7.9183-0.0875-0.0013-0.4289-0.49723-0.75867-1.1024z" fill="#fce94f" stroke="#edd400"/>
   <path d="m19.982 43.544c-4.22-2.1439-7.7384-3.9582-7.8186-4.0317-0.2855-0.26156 2.5194-5.1996 4.6817-8.242 2.9021-4.0834 6.868-8.3699 10.529-11.38l1.8357-1.5093 10.726 14.625-0.49588 0.38566c-3.9974 3.1089-8.3556 8.2338-10.819 12.722-0.40306 0.7344-0.7852 1.3337-0.84919 1.3318-0.06399-0.0019-3.5691-1.7576-7.7891-3.9015z" fill="#fc6" stroke="#f2b35d"/>
   <path d="m37.986 23.327c-3.0254-4.1273-5.2833-7.3648-5.1956-7.4497 0.47358-0.45868 4.4166-2.6935 6.8578-3.8869 2.6228-1.2821 6.44-2.8808 7.2133-3.021 0.29415-0.05334 0.66975 0.94434 3.1309 8.3163 1.5381 4.6073 2.7966 8.4588 2.7966 8.5589s-0.59548 0.40343-1.3233 0.67409c-1.5923 0.59214-5.4291 2.4675-6.9967 3.4199l-1.1323 0.68791z" fill="#ddd9c7" stroke="#d1c6b2"/>
   <path d="m95.122 29.871c-1.5407-0.93573-5.416-2.8158-7.0206-3.4059-0.68043-0.25025-1.0801-0.49119-1.0303-0.62108 0.04479-0.11672 1.2987-3.9611 2.7865-8.5431l2.7051-8.3309 0.45987 0.091974c0.92854 0.18571 4.3813 1.6408 7.2146 3.0404 2.5062 1.2381 6.4725 3.4929 6.9405 3.9456 0.14707 0.14228-10.373 14.653-10.611 14.635-0.06694-0.0049-0.71701-0.37042-1.4446-0.81233z" fill="#dadaa7" stroke="#d2cc9b"/>
   <path d="m81.805 24.497c-6.8524-1.7476-15.818-1.8101-23.174-0.16162-0.9104 0.204-1.6871 0.33904-1.7261 0.3001-0.03895-0.03895-1.3369-3.8672-2.8844-8.5073-2.0894-6.2653-2.7574-8.4715-2.5954-8.5725 0.83376-0.51962 7.7623-1.768 12.124-2.1845 4.1046-0.39196 11.189-0.26718 15.169 0.26716 3.506 0.47073 9.5099 1.697 9.8183 2.0054 0.05718 0.057185-5.0655 16.08-5.4562 17.066-0.02236 0.05642-0.59627-0.03911-1.2754-0.21229z" fill="#eeeeec" stroke="#d3d7cf"/>
  </g>
 </g>
 <path d="m61.242 79.376c8.7456-2.6458 8.7456 3.9688 17.198 0" fill="none" stroke="#000" stroke-linecap="round" stroke-linejoin="round" stroke-width="5"/>
</svg>
